<mxfile host="app.diagrams.net" agent="Mozilla/5.0 (X11; Linux x86_64; rv:133.0) Gecko/20100101 Firefox/133.0" version="25.0.3">
  <diagram name="Page-1" id="OdR0Gze4ak8wOGlbdrPr">
    <mxGraphModel dx="698" dy="647" grid="1" gridSize="10" guides="1" tooltips="1" connect="1" arrows="1" fold="1" page="1" pageScale="1" pageWidth="850" pageHeight="1100" math="1" shadow="0">
      <root>
        <mxCell id="0" />
        <mxCell id="1" parent="0" />
        <mxCell id="07vdqjXVIt6HW5GL4Kjy-1" value="&lt;font style=&quot;font-size: 14px;&quot; face=&quot;Garamond&quot;&gt;Fully Connected&lt;/font&gt;" style="rounded=1;whiteSpace=wrap;html=1;fillColor=#b1ddf0;strokeColor=#10739e;" vertex="1" parent="1">
          <mxGeometry x="422.5" y="290" width="155" height="20" as="geometry" />
        </mxCell>
        <mxCell id="07vdqjXVIt6HW5GL4Kjy-31" style="edgeStyle=orthogonalEdgeStyle;rounded=0;orthogonalLoop=1;jettySize=auto;html=1;exitX=0.5;exitY=1;exitDx=0;exitDy=0;entryX=0.5;entryY=0;entryDx=0;entryDy=0;endArrow=diamondThin;endFill=1;" edge="1" parent="1" source="07vdqjXVIt6HW5GL4Kjy-65" target="07vdqjXVIt6HW5GL4Kjy-3">
          <mxGeometry relative="1" as="geometry" />
        </mxCell>
        <mxCell id="07vdqjXVIt6HW5GL4Kjy-2" value="&lt;font style=&quot;font-size: 14px;&quot; face=&quot;Garamond&quot;&gt;Input Embedding&lt;br&gt;&lt;/font&gt;" style="rounded=1;whiteSpace=wrap;html=1;fillColor=#fad7ac;strokeColor=#b46504;" vertex="1" parent="1">
          <mxGeometry x="300" y="110" width="140" height="30" as="geometry" />
        </mxCell>
        <mxCell id="07vdqjXVIt6HW5GL4Kjy-67" style="edgeStyle=orthogonalEdgeStyle;rounded=0;orthogonalLoop=1;jettySize=auto;html=1;exitX=0;exitY=0.5;exitDx=0;exitDy=0;entryX=0;entryY=0.5;entryDx=0;entryDy=0;endArrow=none;endFill=0;" edge="1" parent="1">
          <mxGeometry relative="1" as="geometry">
            <mxPoint x="300" y="215" as="sourcePoint" />
            <mxPoint x="367" y="165" as="targetPoint" />
            <Array as="points">
              <mxPoint x="300" y="216" />
              <mxPoint x="290" y="216" />
              <mxPoint x="290" y="165" />
            </Array>
          </mxGeometry>
        </mxCell>
        <mxCell id="07vdqjXVIt6HW5GL4Kjy-3" value="&lt;font&gt;Attention Block&lt;br&gt;&lt;/font&gt;" style="rounded=1;whiteSpace=wrap;html=1;fillColor=#fad9d5;strokeColor=#ae4132;fontSize=14;fontFamily=Garamond;" vertex="1" parent="1">
          <mxGeometry x="300" y="210" width="140" height="20" as="geometry" />
        </mxCell>
        <mxCell id="07vdqjXVIt6HW5GL4Kjy-78" style="edgeStyle=orthogonalEdgeStyle;rounded=0;orthogonalLoop=1;jettySize=auto;html=1;exitX=0.5;exitY=1;exitDx=0;exitDy=0;entryX=0.5;entryY=0;entryDx=0;entryDy=0;endArrow=diamondThin;endFill=1;" edge="1" parent="1" source="07vdqjXVIt6HW5GL4Kjy-64" target="07vdqjXVIt6HW5GL4Kjy-77">
          <mxGeometry relative="1" as="geometry" />
        </mxCell>
        <mxCell id="07vdqjXVIt6HW5GL4Kjy-64" value="" style="shape=sumEllipse;perimeter=ellipsePerimeter;whiteSpace=wrap;html=1;backgroundOutline=1;" vertex="1" parent="1">
          <mxGeometry x="490" y="207" width="20" height="20" as="geometry" />
        </mxCell>
        <mxCell id="07vdqjXVIt6HW5GL4Kjy-66" value="" style="edgeStyle=orthogonalEdgeStyle;rounded=0;orthogonalLoop=1;jettySize=auto;html=1;exitX=0.5;exitY=1;exitDx=0;exitDy=0;entryX=0.5;entryY=0;entryDx=0;entryDy=0;endArrow=none;endFill=0;" edge="1" parent="1" source="07vdqjXVIt6HW5GL4Kjy-2" target="07vdqjXVIt6HW5GL4Kjy-65">
          <mxGeometry relative="1" as="geometry">
            <mxPoint x="370" y="160" as="sourcePoint" />
            <mxPoint x="370" y="210" as="targetPoint" />
          </mxGeometry>
        </mxCell>
        <mxCell id="07vdqjXVIt6HW5GL4Kjy-71" style="edgeStyle=orthogonalEdgeStyle;rounded=0;orthogonalLoop=1;jettySize=auto;html=1;exitX=1;exitY=0.5;exitDx=0;exitDy=0;entryX=0;entryY=0.5;entryDx=0;entryDy=0;endArrow=diamondThin;endFill=1;" edge="1" parent="1">
          <mxGeometry relative="1" as="geometry">
            <mxPoint x="373" y="165" as="sourcePoint" />
            <mxPoint x="470" y="165" as="targetPoint" />
          </mxGeometry>
        </mxCell>
        <mxCell id="07vdqjXVIt6HW5GL4Kjy-65" value="" style="ellipse;whiteSpace=wrap;html=1;aspect=fixed;fillColor=#000000;" vertex="1" parent="1">
          <mxGeometry x="367" y="162" width="6" height="6" as="geometry" />
        </mxCell>
        <mxCell id="07vdqjXVIt6HW5GL4Kjy-69" value="$$\times M$$ " style="text;html=1;align=center;verticalAlign=middle;whiteSpace=wrap;rounded=0;" vertex="1" parent="1">
          <mxGeometry x="230" y="180" width="60" height="30" as="geometry" />
        </mxCell>
        <mxCell id="07vdqjXVIt6HW5GL4Kjy-70" value="&lt;div align=&quot;center&quot;&gt;Blocks&lt;/div&gt;" style="text;whiteSpace=wrap;html=1;align=center;" vertex="1" parent="1">
          <mxGeometry x="220" y="196" width="70" height="40" as="geometry" />
        </mxCell>
        <mxCell id="07vdqjXVIt6HW5GL4Kjy-72" value="&lt;font style=&quot;font-size: 14px;&quot;&gt;$$\gamma_m$$&lt;/font&gt;" style="text;html=1;align=center;verticalAlign=middle;whiteSpace=wrap;rounded=0;" vertex="1" parent="1">
          <mxGeometry x="515.5" y="200" width="20" height="30" as="geometry" />
        </mxCell>
        <mxCell id="07vdqjXVIt6HW5GL4Kjy-76" style="edgeStyle=orthogonalEdgeStyle;rounded=0;orthogonalLoop=1;jettySize=auto;html=1;exitX=0.5;exitY=1;exitDx=0;exitDy=0;entryX=0.5;entryY=0;entryDx=0;entryDy=0;endArrow=none;endFill=0;" edge="1" parent="1" source="07vdqjXVIt6HW5GL4Kjy-74" target="07vdqjXVIt6HW5GL4Kjy-64">
          <mxGeometry relative="1" as="geometry" />
        </mxCell>
        <mxCell id="07vdqjXVIt6HW5GL4Kjy-74" value="&lt;font face=&quot;Garamond&quot;&gt;Average&lt;/font&gt;" style="rounded=1;whiteSpace=wrap;html=1;fillColor=#b0e3e6;strokeColor=#0e8088;" vertex="1" parent="1">
          <mxGeometry x="470" y="160" width="60" height="20" as="geometry" />
        </mxCell>
        <mxCell id="07vdqjXVIt6HW5GL4Kjy-77" value="&lt;font style=&quot;font-size: 14px;&quot; face=&quot;Garamond&quot;&gt;Weighted Embedding&lt;br&gt;&lt;/font&gt;" style="rounded=1;whiteSpace=wrap;html=1;fillColor=#fad7ac;strokeColor=#b46504;" vertex="1" parent="1">
          <mxGeometry x="422.5" y="250" width="155" height="30" as="geometry" />
        </mxCell>
        <mxCell id="07vdqjXVIt6HW5GL4Kjy-79" value="&lt;font style=&quot;font-size: 14px;&quot; face=&quot;Garamond&quot;&gt;Fully Connected&lt;/font&gt;" style="rounded=1;whiteSpace=wrap;html=1;fillColor=#b1ddf0;strokeColor=#10739e;" vertex="1" parent="1">
          <mxGeometry x="422.5" y="330" width="155" height="20" as="geometry" />
        </mxCell>
        <mxCell id="07vdqjXVIt6HW5GL4Kjy-80" value="&lt;font style=&quot;font-size: 14px;&quot; face=&quot;Garamond&quot;&gt;Fully Connected&lt;/font&gt;" style="rounded=1;whiteSpace=wrap;html=1;fillColor=#b1ddf0;strokeColor=#10739e;" vertex="1" parent="1">
          <mxGeometry x="422.5" y="370" width="155" height="20" as="geometry" />
        </mxCell>
        <mxCell id="07vdqjXVIt6HW5GL4Kjy-81" value="&lt;font style=&quot;font-size: 9px;&quot; face=&quot;Garamond&quot;&gt;ReLU&lt;/font&gt;" style="rounded=1;whiteSpace=wrap;html=1;fillColor=#d0cee2;strokeColor=#56517e;" vertex="1" parent="1">
          <mxGeometry x="422.5" y="310" width="155" height="10" as="geometry" />
        </mxCell>
        <mxCell id="07vdqjXVIt6HW5GL4Kjy-82" value="&lt;font style=&quot;font-size: 9px;&quot; face=&quot;Garamond&quot;&gt;ReLU&lt;/font&gt;" style="rounded=1;whiteSpace=wrap;html=1;fillColor=#d0cee2;strokeColor=#56517e;" vertex="1" parent="1">
          <mxGeometry x="422.5" y="350" width="155" height="10" as="geometry" />
        </mxCell>
        <mxCell id="07vdqjXVIt6HW5GL4Kjy-83" value="&lt;font style=&quot;font-size: 9px;&quot; face=&quot;Garamond&quot;&gt;ReLU&lt;/font&gt;" style="rounded=1;whiteSpace=wrap;html=1;fillColor=#d0cee2;strokeColor=#56517e;" vertex="1" parent="1">
          <mxGeometry x="422.5" y="390" width="155" height="10" as="geometry" />
        </mxCell>
        <mxCell id="07vdqjXVIt6HW5GL4Kjy-84" value="&lt;font style=&quot;font-size: 14px;&quot; face=&quot;Garamond&quot;&gt;Fully Connected&lt;/font&gt;" style="rounded=1;whiteSpace=wrap;html=1;fillColor=#b1ddf0;strokeColor=#10739e;" vertex="1" parent="1">
          <mxGeometry x="422.5" y="410" width="155" height="20" as="geometry" />
        </mxCell>
        <mxCell id="07vdqjXVIt6HW5GL4Kjy-86" value="" style="rounded=0;whiteSpace=wrap;html=1;fillColor=none;dashed=1;" vertex="1" parent="1">
          <mxGeometry x="220" y="180" width="230" height="60" as="geometry" />
        </mxCell>
        <mxCell id="07vdqjXVIt6HW5GL4Kjy-87" value="&lt;font style=&quot;font-size: 14px;&quot; face=&quot;Garamond&quot;&gt;Astromer Encoder&lt;/font&gt;" style="text;html=1;align=center;verticalAlign=middle;whiteSpace=wrap;rounded=0;" vertex="1" parent="1">
          <mxGeometry x="207" y="236" width="160" height="30" as="geometry" />
        </mxCell>
        <mxCell id="07vdqjXVIt6HW5GL4Kjy-89" value="&lt;font style=&quot;font-size: 10px;&quot;&gt;$$200\times 256$$&lt;/font&gt;" style="text;html=1;align=center;verticalAlign=middle;whiteSpace=wrap;rounded=0;" vertex="1" parent="1">
          <mxGeometry x="400" y="147" width="55" height="20" as="geometry" />
        </mxCell>
        <mxCell id="07vdqjXVIt6HW5GL4Kjy-90" value="&lt;font style=&quot;font-size: 10px;&quot;&gt;$$1\times 256$$&lt;/font&gt;" style="text;html=1;align=center;verticalAlign=middle;whiteSpace=wrap;rounded=0;" vertex="1" parent="1">
          <mxGeometry x="498" y="186" width="55" height="20" as="geometry" />
        </mxCell>
        <mxCell id="07vdqjXVIt6HW5GL4Kjy-92" value="&lt;font face=&quot;Garamond&quot;&gt;Predicted Label&lt;br&gt;&lt;/font&gt;" style="rounded=1;whiteSpace=wrap;html=1;fillColor=#fad7ac;strokeColor=#b46504;" vertex="1" parent="1">
          <mxGeometry x="422.5" y="440" width="155" height="20" as="geometry" />
        </mxCell>
      </root>
    </mxGraphModel>
  </diagram>
</mxfile>
